REM MD5 fb316da8f1704c506b1b8a7d8b4274b7
FILE "Alabama Meets Will Vi - The 33rd Tokyo Motor Show (Japan).bin" BINARY
  TRACK 01 MODE2/2352
    INDEX 01 00:00:00
  TRACK 02 AUDIO
    INDEX 00 30:04:27
    INDEX 01 30:06:27
  TRACK 03 MODE2/2352
    INDEX 00 31:53:69
    INDEX 01 31:56:69
REM LEADOUT 35:46:59
